<mxfile host="app.diagrams.net" modified="2024-03-13T07:20:07.645Z" agent="Mozilla/5.0 (Windows NT 10.0; Win64; x64) AppleWebKit/537.36 (KHTML, like Gecko) Chrome/117.0.0.0 Safari/537.36" etag="qEhZiaAYAjGEz1WBJo7b" version="24.0.4" type="github">
  <diagram id="C5RBs43oDa-KdzZeNtuy" name="Page-1">
    <mxGraphModel dx="2849" dy="640" grid="1" gridSize="10" guides="1" tooltips="1" connect="1" arrows="1" fold="1" page="1" pageScale="1" pageWidth="827" pageHeight="1169" math="0" shadow="0">
      <root>
        <mxCell id="WIyWlLk6GJQsqaUBKTNV-0" />
        <mxCell id="WIyWlLk6GJQsqaUBKTNV-1" parent="WIyWlLk6GJQsqaUBKTNV-0" />
        <mxCell id="EE5mFRboxM6X0PhIgB9W-15" value="" style="rounded=0;whiteSpace=wrap;html=1;" vertex="1" parent="WIyWlLk6GJQsqaUBKTNV-1">
          <mxGeometry x="1040" y="440" width="1000" height="120" as="geometry" />
        </mxCell>
        <mxCell id="EE5mFRboxM6X0PhIgB9W-1" style="edgeStyle=none;rounded=0;orthogonalLoop=1;jettySize=auto;html=1;exitX=0.5;exitY=0;exitDx=0;exitDy=0;entryX=0.5;entryY=1;entryDx=0;entryDy=0;" edge="1" parent="WIyWlLk6GJQsqaUBKTNV-1" source="gpyAhbkI_0szL79RBJTk-85" target="gpyAhbkI_0szL79RBJTk-68">
          <mxGeometry relative="1" as="geometry" />
        </mxCell>
        <mxCell id="gpyAhbkI_0szL79RBJTk-83" value="" style="rounded=0;whiteSpace=wrap;html=1;" parent="WIyWlLk6GJQsqaUBKTNV-1" vertex="1">
          <mxGeometry x="-950" y="657.5" width="297.5" height="137.5" as="geometry" />
        </mxCell>
        <mxCell id="gpyAhbkI_0szL79RBJTk-49" value="" style="rounded=0;whiteSpace=wrap;html=1;" parent="WIyWlLk6GJQsqaUBKTNV-1" vertex="1">
          <mxGeometry x="-50" y="710" width="200" height="280" as="geometry" />
        </mxCell>
        <mxCell id="gpyAhbkI_0szL79RBJTk-82" style="edgeStyle=none;rounded=0;orthogonalLoop=1;jettySize=auto;html=1;exitX=0.5;exitY=1;exitDx=0;exitDy=0;entryX=0.5;entryY=0;entryDx=0;entryDy=0;" parent="WIyWlLk6GJQsqaUBKTNV-1" source="gpyAhbkI_0szL79RBJTk-76" target="gpyAhbkI_0szL79RBJTk-52" edge="1">
          <mxGeometry relative="1" as="geometry" />
        </mxCell>
        <mxCell id="gpyAhbkI_0szL79RBJTk-76" value="" style="rounded=0;whiteSpace=wrap;html=1;" parent="WIyWlLk6GJQsqaUBKTNV-1" vertex="1">
          <mxGeometry x="-120" y="530" width="340" height="130" as="geometry" />
        </mxCell>
        <mxCell id="gpyAhbkI_0szL79RBJTk-36" value="" style="rounded=0;whiteSpace=wrap;html=1;" parent="WIyWlLk6GJQsqaUBKTNV-1" vertex="1">
          <mxGeometry x="310" y="830" width="270" height="160" as="geometry" />
        </mxCell>
        <mxCell id="gpyAhbkI_0szL79RBJTk-24" value="" style="rounded=0;whiteSpace=wrap;html=1;" parent="WIyWlLk6GJQsqaUBKTNV-1" vertex="1">
          <mxGeometry x="650" y="710" width="200" height="280" as="geometry" />
        </mxCell>
        <mxCell id="8sShFJXzrjoNy3E7Pt8Y-33" value="" style="rounded=0;whiteSpace=wrap;html=1;" parent="WIyWlLk6GJQsqaUBKTNV-1" vertex="1">
          <mxGeometry x="1860" y="580" width="180" height="300" as="geometry" />
        </mxCell>
        <mxCell id="8sShFJXzrjoNy3E7Pt8Y-23" value="" style="rounded=0;whiteSpace=wrap;html=1;" parent="WIyWlLk6GJQsqaUBKTNV-1" vertex="1">
          <mxGeometry x="980" y="580" width="330" height="340" as="geometry" />
        </mxCell>
        <mxCell id="8sShFJXzrjoNy3E7Pt8Y-1" value="&lt;div style=&quot;font-size: medium; text-align: start;&quot; data-hash=&quot;3e45efe6a880c21dcbc873dc145f4ac9&quot; data-version=&quot;3.0.0&quot;&gt;&lt;/div&gt;&lt;div style=&quot;font-size: medium; text-align: start;&quot; class=&quot;document&quot;&gt;&lt;div class=&quot;section&quot;&gt;&lt;p style=&quot;margin: 3pt 0pt 3pt 16.8pt; font-family: 等线; font-size: 12pt; line-height: 20.8px; text-indent: -16.8pt;&quot; class=&quot;paragraph text-align-type-left&quot;&gt;&lt;span style=&quot;font-size: 11pt; color: rgb(51, 51, 51); letter-spacing: 0pt; vertical-align: baseline;&quot; data-font-family=&quot;default&quot;&gt;归因微服务&lt;/span&gt;&lt;/p&gt;&lt;/div&gt;&lt;/div&gt;" style="rounded=1;whiteSpace=wrap;html=1;" parent="WIyWlLk6GJQsqaUBKTNV-1" vertex="1">
          <mxGeometry x="1080" y="470" width="120" height="60" as="geometry" />
        </mxCell>
        <mxCell id="8sShFJXzrjoNy3E7Pt8Y-3" value="&lt;div style=&quot;font-size: medium; text-align: start;&quot; data-hash=&quot;3e45efe6a880c21dcbc873dc145f4ac9&quot; data-version=&quot;3.0.0&quot;&gt;&lt;/div&gt;&lt;div style=&quot;font-size: medium; text-align: start;&quot; class=&quot;document&quot;&gt;&lt;div class=&quot;section&quot;&gt;&lt;p style=&quot;margin: 3pt 0pt 3pt 16.8pt; font-family: 等线; font-size: 12pt; line-height: 20.8px; text-indent: -16.8pt;&quot; class=&quot;paragraph text-align-type-left&quot;&gt;&lt;span style=&quot;font-family: Helvetica; font-size: 12px; text-align: center; text-indent: 0px;&quot;&gt;1 投资中心组合组归因&lt;/span&gt;&lt;br&gt;&lt;/p&gt;&lt;/div&gt;&lt;/div&gt;" style="rounded=1;whiteSpace=wrap;html=1;" parent="WIyWlLk6GJQsqaUBKTNV-1" vertex="1">
          <mxGeometry x="1000" y="595" width="120" height="60" as="geometry" />
        </mxCell>
        <mxCell id="8sShFJXzrjoNy3E7Pt8Y-5" value="2 投资中心组合组归因指数对标" style="rounded=1;whiteSpace=wrap;html=1;" parent="WIyWlLk6GJQsqaUBKTNV-1" vertex="1">
          <mxGeometry x="1000" y="680" width="120" height="60" as="geometry" />
        </mxCell>
        <mxCell id="8sShFJXzrjoNy3E7Pt8Y-7" value="3 投资中心去ABS归因" style="rounded=1;whiteSpace=wrap;html=1;" parent="WIyWlLk6GJQsqaUBKTNV-1" vertex="1">
          <mxGeometry x="1160" y="590" width="130" height="60" as="geometry" />
        </mxCell>
        <mxCell id="8sShFJXzrjoNy3E7Pt8Y-11" value="4 做市中心归因" style="rounded=1;whiteSpace=wrap;html=1;" parent="WIyWlLk6GJQsqaUBKTNV-1" vertex="1">
          <mxGeometry x="1160" y="680" width="130" height="60" as="geometry" />
        </mxCell>
        <mxCell id="8sShFJXzrjoNy3E7Pt8Y-15" value="&lt;div style=&quot;font-size: medium; text-align: start;&quot; data-hash=&quot;3e45efe6a880c21dcbc873dc145f4ac9&quot; data-version=&quot;3.0.0&quot;&gt;&lt;/div&gt;&lt;div style=&quot;font-size: medium; text-align: start;&quot; class=&quot;document&quot;&gt;&lt;div class=&quot;section&quot;&gt;&lt;p style=&quot;margin: 3pt 0pt 3pt 16.8pt; font-family: 等线; font-size: 12pt; line-height: 20.8px; text-indent: -16.8pt;&quot; class=&quot;paragraph text-align-type-left&quot;&gt;&lt;span style=&quot;font-size: 11pt; color: rgb(51, 51, 51); letter-spacing: 0pt; vertical-align: baseline;&quot; data-font-family=&quot;default&quot;&gt;基础服务&lt;/span&gt;&lt;/p&gt;&lt;/div&gt;&lt;/div&gt;" style="rounded=1;whiteSpace=wrap;html=1;" parent="WIyWlLk6GJQsqaUBKTNV-1" vertex="1">
          <mxGeometry x="1560" y="470" width="120" height="60" as="geometry" />
        </mxCell>
        <mxCell id="8sShFJXzrjoNy3E7Pt8Y-16" value="&lt;div style=&quot;font-size: medium; text-align: start;&quot; data-hash=&quot;3e45efe6a880c21dcbc873dc145f4ac9&quot; data-version=&quot;3.0.0&quot;&gt;&lt;/div&gt;&lt;div style=&quot;text-align: start;&quot; class=&quot;document&quot;&gt;&lt;div style=&quot;&quot; class=&quot;section&quot;&gt;&lt;p style=&quot;margin: 3pt 0pt 3pt 16.8pt; font-family: 等线; line-height: 20.8px; text-indent: -16.8pt;&quot; class=&quot;paragraph text-align-type-left&quot;&gt;&lt;font color=&quot;#333333&quot;&gt;&lt;span style=&quot;font-size: 14.6667px;&quot;&gt;交易测算微服务&lt;/span&gt;&lt;/font&gt;&lt;/p&gt;&lt;/div&gt;&lt;/div&gt;" style="rounded=1;whiteSpace=wrap;html=1;" parent="WIyWlLk6GJQsqaUBKTNV-1" vertex="1">
          <mxGeometry x="1890" y="470" width="120" height="60" as="geometry" />
        </mxCell>
        <mxCell id="8sShFJXzrjoNy3E7Pt8Y-19" value="" style="rounded=0;whiteSpace=wrap;html=1;" parent="WIyWlLk6GJQsqaUBKTNV-1" vertex="1">
          <mxGeometry x="1490" y="600" width="240" height="300" as="geometry" />
        </mxCell>
        <mxCell id="8sShFJXzrjoNy3E7Pt8Y-24" value="" style="endArrow=none;html=1;rounded=0;" parent="WIyWlLk6GJQsqaUBKTNV-1" edge="1">
          <mxGeometry width="50" height="50" relative="1" as="geometry">
            <mxPoint x="1390" y="870" as="sourcePoint" />
            <mxPoint x="1390" y="620" as="targetPoint" />
          </mxGeometry>
        </mxCell>
        <mxCell id="8sShFJXzrjoNy3E7Pt8Y-25" value="" style="endArrow=none;html=1;rounded=0;entryX=0;entryY=0.5;entryDx=0;entryDy=0;" parent="WIyWlLk6GJQsqaUBKTNV-1" target="8sShFJXzrjoNy3E7Pt8Y-35" edge="1">
          <mxGeometry width="50" height="50" relative="1" as="geometry">
            <mxPoint x="1390" y="705" as="sourcePoint" />
            <mxPoint x="1360" y="590" as="targetPoint" />
          </mxGeometry>
        </mxCell>
        <mxCell id="8sShFJXzrjoNy3E7Pt8Y-26" value="" style="endArrow=classic;html=1;rounded=0;entryX=1;entryY=0.5;entryDx=0;entryDy=0;" parent="WIyWlLk6GJQsqaUBKTNV-1" target="8sShFJXzrjoNy3E7Pt8Y-7" edge="1">
          <mxGeometry width="50" height="50" relative="1" as="geometry">
            <mxPoint x="1390" y="620" as="sourcePoint" />
            <mxPoint x="1360" y="590" as="targetPoint" />
          </mxGeometry>
        </mxCell>
        <mxCell id="8sShFJXzrjoNy3E7Pt8Y-27" value="" style="endArrow=classic;html=1;rounded=0;entryX=1;entryY=0.5;entryDx=0;entryDy=0;" parent="WIyWlLk6GJQsqaUBKTNV-1" target="8sShFJXzrjoNy3E7Pt8Y-11" edge="1">
          <mxGeometry width="50" height="50" relative="1" as="geometry">
            <mxPoint x="1390" y="710" as="sourcePoint" />
            <mxPoint x="1360" y="690" as="targetPoint" />
          </mxGeometry>
        </mxCell>
        <mxCell id="8sShFJXzrjoNy3E7Pt8Y-28" value="8 交易测算" style="rounded=1;whiteSpace=wrap;html=1;" parent="WIyWlLk6GJQsqaUBKTNV-1" vertex="1">
          <mxGeometry x="1884.5" y="595" width="130" height="60" as="geometry" />
        </mxCell>
        <mxCell id="8sShFJXzrjoNy3E7Pt8Y-29" value="9 债券借贷" style="rounded=1;whiteSpace=wrap;html=1;" parent="WIyWlLk6GJQsqaUBKTNV-1" vertex="1">
          <mxGeometry x="1884.5" y="690" width="130" height="60" as="geometry" />
        </mxCell>
        <mxCell id="8sShFJXzrjoNy3E7Pt8Y-30" value="10 一级承销费纳入" style="rounded=1;whiteSpace=wrap;html=1;" parent="WIyWlLk6GJQsqaUBKTNV-1" vertex="1">
          <mxGeometry x="1884.5" y="790" width="131" height="60" as="geometry" />
        </mxCell>
        <mxCell id="8sShFJXzrjoNy3E7Pt8Y-35" value="" style="rounded=0;whiteSpace=wrap;html=1;" parent="WIyWlLk6GJQsqaUBKTNV-1" vertex="1">
          <mxGeometry x="1520" y="620" width="180" height="170" as="geometry" />
        </mxCell>
        <mxCell id="8sShFJXzrjoNy3E7Pt8Y-31" value="6 境外债归因" style="rounded=1;whiteSpace=wrap;html=1;" parent="WIyWlLk6GJQsqaUBKTNV-1" vertex="1">
          <mxGeometry x="1160" y="765" width="130" height="60" as="geometry" />
        </mxCell>
        <mxCell id="8sShFJXzrjoNy3E7Pt8Y-32" value="7 委外基金归因" style="rounded=1;whiteSpace=wrap;html=1;" parent="WIyWlLk6GJQsqaUBKTNV-1" vertex="1">
          <mxGeometry x="1160" y="840" width="130" height="60" as="geometry" />
        </mxCell>
        <mxCell id="8sShFJXzrjoNy3E7Pt8Y-34" value="5 境外债投后分析" style="rounded=1;whiteSpace=wrap;html=1;" parent="WIyWlLk6GJQsqaUBKTNV-1" vertex="1">
          <mxGeometry x="1545" y="815" width="130" height="60" as="geometry" />
        </mxCell>
        <mxCell id="8sShFJXzrjoNy3E7Pt8Y-17" value="task构表服务" style="rounded=1;whiteSpace=wrap;html=1;" parent="WIyWlLk6GJQsqaUBKTNV-1" vertex="1">
          <mxGeometry x="1550" y="630" width="120" height="60" as="geometry" />
        </mxCell>
        <mxCell id="8sShFJXzrjoNy3E7Pt8Y-18" value="clear清算服务" style="whiteSpace=wrap;html=1;rounded=1;" parent="WIyWlLk6GJQsqaUBKTNV-1" vertex="1">
          <mxGeometry x="1550" y="715" width="120" height="60" as="geometry" />
        </mxCell>
        <mxCell id="8sShFJXzrjoNy3E7Pt8Y-36" value="" style="endArrow=classic;html=1;rounded=0;entryX=1;entryY=0.5;entryDx=0;entryDy=0;" parent="WIyWlLk6GJQsqaUBKTNV-1" target="8sShFJXzrjoNy3E7Pt8Y-31" edge="1">
          <mxGeometry width="50" height="50" relative="1" as="geometry">
            <mxPoint x="1390" y="795" as="sourcePoint" />
            <mxPoint x="1530" y="810" as="targetPoint" />
          </mxGeometry>
        </mxCell>
        <mxCell id="8sShFJXzrjoNy3E7Pt8Y-37" value="" style="endArrow=classic;html=1;rounded=0;entryX=1;entryY=0.5;entryDx=0;entryDy=0;" parent="WIyWlLk6GJQsqaUBKTNV-1" target="8sShFJXzrjoNy3E7Pt8Y-32" edge="1">
          <mxGeometry width="50" height="50" relative="1" as="geometry">
            <mxPoint x="1390" y="870" as="sourcePoint" />
            <mxPoint x="1530" y="810" as="targetPoint" />
          </mxGeometry>
        </mxCell>
        <mxCell id="8sShFJXzrjoNy3E7Pt8Y-38" value="" style="endArrow=classic;html=1;rounded=0;entryX=-0.006;entryY=0.417;entryDx=0;entryDy=0;entryPerimeter=0;exitX=1;exitY=0.5;exitDx=0;exitDy=0;" parent="WIyWlLk6GJQsqaUBKTNV-1" source="8sShFJXzrjoNy3E7Pt8Y-35" target="8sShFJXzrjoNy3E7Pt8Y-33" edge="1">
          <mxGeometry width="50" height="50" relative="1" as="geometry">
            <mxPoint x="1530" y="820" as="sourcePoint" />
            <mxPoint x="1580" y="770" as="targetPoint" />
          </mxGeometry>
        </mxCell>
        <mxCell id="8sShFJXzrjoNy3E7Pt8Y-39" value="" style="endArrow=classic;html=1;rounded=0;entryX=0.5;entryY=0;entryDx=0;entryDy=0;exitX=0.5;exitY=1;exitDx=0;exitDy=0;" parent="WIyWlLk6GJQsqaUBKTNV-1" source="8sShFJXzrjoNy3E7Pt8Y-35" target="8sShFJXzrjoNy3E7Pt8Y-34" edge="1">
          <mxGeometry width="50" height="50" relative="1" as="geometry">
            <mxPoint x="1530" y="820" as="sourcePoint" />
            <mxPoint x="1580" y="770" as="targetPoint" />
          </mxGeometry>
        </mxCell>
        <mxCell id="8sShFJXzrjoNy3E7Pt8Y-40" value="" style="endArrow=none;html=1;rounded=0;exitX=0.5;exitY=1;exitDx=0;exitDy=0;entryX=0.482;entryY=-0.006;entryDx=0;entryDy=0;entryPerimeter=0;" parent="WIyWlLk6GJQsqaUBKTNV-1" source="8sShFJXzrjoNy3E7Pt8Y-1" target="8sShFJXzrjoNy3E7Pt8Y-23" edge="1">
          <mxGeometry width="50" height="50" relative="1" as="geometry">
            <mxPoint x="1530" y="820" as="sourcePoint" />
            <mxPoint x="1580" y="770" as="targetPoint" />
          </mxGeometry>
        </mxCell>
        <mxCell id="8sShFJXzrjoNy3E7Pt8Y-41" value="" style="endArrow=none;html=1;rounded=0;exitX=0.5;exitY=1;exitDx=0;exitDy=0;entryX=0.544;entryY=0.002;entryDx=0;entryDy=0;entryPerimeter=0;" parent="WIyWlLk6GJQsqaUBKTNV-1" source="8sShFJXzrjoNy3E7Pt8Y-15" target="8sShFJXzrjoNy3E7Pt8Y-19" edge="1">
          <mxGeometry width="50" height="50" relative="1" as="geometry">
            <mxPoint x="1530" y="720" as="sourcePoint" />
            <mxPoint x="1580" y="670" as="targetPoint" />
          </mxGeometry>
        </mxCell>
        <mxCell id="8sShFJXzrjoNy3E7Pt8Y-42" value="" style="endArrow=none;html=1;rounded=0;exitX=0.5;exitY=0;exitDx=0;exitDy=0;entryX=0.5;entryY=1;entryDx=0;entryDy=0;" parent="WIyWlLk6GJQsqaUBKTNV-1" source="8sShFJXzrjoNy3E7Pt8Y-33" target="8sShFJXzrjoNy3E7Pt8Y-16" edge="1">
          <mxGeometry width="50" height="50" relative="1" as="geometry">
            <mxPoint x="1530" y="720" as="sourcePoint" />
            <mxPoint x="1580" y="670" as="targetPoint" />
          </mxGeometry>
        </mxCell>
        <mxCell id="gpyAhbkI_0szL79RBJTk-43" style="edgeStyle=none;rounded=0;orthogonalLoop=1;jettySize=auto;html=1;exitX=0.75;exitY=1;exitDx=0;exitDy=0;entryX=0.75;entryY=0;entryDx=0;entryDy=0;" parent="WIyWlLk6GJQsqaUBKTNV-1" source="gpyAhbkI_0szL79RBJTk-0" target="gpyAhbkI_0szL79RBJTk-5" edge="1">
          <mxGeometry relative="1" as="geometry" />
        </mxCell>
        <mxCell id="gpyAhbkI_0szL79RBJTk-45" style="edgeStyle=orthogonalEdgeStyle;rounded=0;orthogonalLoop=1;jettySize=auto;html=1;exitX=1;exitY=0.5;exitDx=0;exitDy=0;entryX=1;entryY=0.5;entryDx=0;entryDy=0;" parent="WIyWlLk6GJQsqaUBKTNV-1" source="gpyAhbkI_0szL79RBJTk-0" target="gpyAhbkI_0szL79RBJTk-19" edge="1">
          <mxGeometry relative="1" as="geometry" />
        </mxCell>
        <mxCell id="gpyAhbkI_0szL79RBJTk-0" value="Golden DB" style="rounded=1;whiteSpace=wrap;html=1;" parent="WIyWlLk6GJQsqaUBKTNV-1" vertex="1">
          <mxGeometry x="690" y="730" width="120" height="60" as="geometry" />
        </mxCell>
        <mxCell id="gpyAhbkI_0szL79RBJTk-17" value="" style="edgeStyle=orthogonalEdgeStyle;rounded=0;orthogonalLoop=1;jettySize=auto;html=1;" parent="WIyWlLk6GJQsqaUBKTNV-1" source="gpyAhbkI_0szL79RBJTk-1" target="gpyAhbkI_0szL79RBJTk-0" edge="1">
          <mxGeometry relative="1" as="geometry">
            <Array as="points">
              <mxPoint x="750" y="650" />
              <mxPoint x="750" y="650" />
            </Array>
          </mxGeometry>
        </mxCell>
        <mxCell id="gpyAhbkI_0szL79RBJTk-1" value="湖仓" style="rounded=1;whiteSpace=wrap;html=1;" parent="WIyWlLk6GJQsqaUBKTNV-1" vertex="1">
          <mxGeometry x="690" y="600" width="120" height="60" as="geometry" />
        </mxCell>
        <mxCell id="gpyAhbkI_0szL79RBJTk-42" style="edgeStyle=none;rounded=0;orthogonalLoop=1;jettySize=auto;html=1;entryX=0.25;entryY=1;entryDx=0;entryDy=0;exitX=0.25;exitY=0;exitDx=0;exitDy=0;" parent="WIyWlLk6GJQsqaUBKTNV-1" source="gpyAhbkI_0szL79RBJTk-5" target="gpyAhbkI_0szL79RBJTk-0" edge="1">
          <mxGeometry relative="1" as="geometry" />
        </mxCell>
        <mxCell id="gpyAhbkI_0szL79RBJTk-47" style="edgeStyle=orthogonalEdgeStyle;rounded=0;orthogonalLoop=1;jettySize=auto;html=1;exitX=0;exitY=0.5;exitDx=0;exitDy=0;entryX=0;entryY=0.5;entryDx=0;entryDy=0;" parent="WIyWlLk6GJQsqaUBKTNV-1" source="gpyAhbkI_0szL79RBJTk-5" target="gpyAhbkI_0szL79RBJTk-19" edge="1">
          <mxGeometry relative="1" as="geometry" />
        </mxCell>
        <mxCell id="gpyAhbkI_0szL79RBJTk-5" value="redis" style="rounded=1;whiteSpace=wrap;html=1;" parent="WIyWlLk6GJQsqaUBKTNV-1" vertex="1">
          <mxGeometry x="690" y="840" width="120" height="60" as="geometry" />
        </mxCell>
        <mxCell id="gpyAhbkI_0szL79RBJTk-19" value="前端" style="rounded=1;whiteSpace=wrap;html=1;" parent="WIyWlLk6GJQsqaUBKTNV-1" vertex="1">
          <mxGeometry x="690" y="1040" width="120" height="60" as="geometry" />
        </mxCell>
        <mxCell id="gpyAhbkI_0szL79RBJTk-23" value="&lt;font style=&quot;font-size: 18px;&quot;&gt;b 微服务1、2计算和展示到前端&lt;/font&gt;" style="text;strokeColor=none;align=center;fillColor=none;html=1;verticalAlign=middle;whiteSpace=wrap;rounded=0;" parent="WIyWlLk6GJQsqaUBKTNV-1" vertex="1">
          <mxGeometry x="685" y="920" width="130" height="60" as="geometry" />
        </mxCell>
        <mxCell id="gpyAhbkI_0szL79RBJTk-25" value="&lt;font style=&quot;font-size: 18px;&quot;&gt;a FEX卸数&lt;/font&gt;" style="text;strokeColor=none;align=center;fillColor=none;html=1;verticalAlign=middle;whiteSpace=wrap;rounded=0;" parent="WIyWlLk6GJQsqaUBKTNV-1" vertex="1">
          <mxGeometry x="750" y="670" width="110" height="30" as="geometry" />
        </mxCell>
        <mxCell id="gpyAhbkI_0szL79RBJTk-26" value="&lt;font style=&quot;font-size: 18px;&quot;&gt;实时链路&lt;/font&gt;" style="text;strokeColor=none;align=center;fillColor=none;html=1;verticalAlign=middle;whiteSpace=wrap;rounded=0;" parent="WIyWlLk6GJQsqaUBKTNV-1" vertex="1">
          <mxGeometry x="680" y="560" width="140" height="30" as="geometry" />
        </mxCell>
        <mxCell id="gpyAhbkI_0szL79RBJTk-32" value="" style="edgeStyle=orthogonalEdgeStyle;rounded=0;orthogonalLoop=1;jettySize=auto;html=1;" parent="WIyWlLk6GJQsqaUBKTNV-1" source="gpyAhbkI_0szL79RBJTk-27" target="gpyAhbkI_0szL79RBJTk-31" edge="1">
          <mxGeometry relative="1" as="geometry" />
        </mxCell>
        <mxCell id="gpyAhbkI_0szL79RBJTk-34" style="edgeStyle=none;rounded=0;orthogonalLoop=1;jettySize=auto;html=1;exitX=0.25;exitY=1;exitDx=0;exitDy=0;entryX=0.25;entryY=0;entryDx=0;entryDy=0;" parent="WIyWlLk6GJQsqaUBKTNV-1" source="gpyAhbkI_0szL79RBJTk-27" target="gpyAhbkI_0szL79RBJTk-30" edge="1">
          <mxGeometry relative="1" as="geometry" />
        </mxCell>
        <mxCell id="gpyAhbkI_0szL79RBJTk-27" value="湖仓" style="rounded=1;whiteSpace=wrap;html=1;" parent="WIyWlLk6GJQsqaUBKTNV-1" vertex="1">
          <mxGeometry x="385" y="720" width="120" height="60" as="geometry" />
        </mxCell>
        <mxCell id="gpyAhbkI_0szL79RBJTk-29" value="&lt;font style=&quot;font-size: 18px;&quot;&gt;定时链路&lt;/font&gt;" style="text;strokeColor=none;align=center;fillColor=none;html=1;verticalAlign=middle;whiteSpace=wrap;rounded=0;" parent="WIyWlLk6GJQsqaUBKTNV-1" vertex="1">
          <mxGeometry x="375" y="580" width="140" height="30" as="geometry" />
        </mxCell>
        <mxCell id="gpyAhbkI_0szL79RBJTk-35" style="edgeStyle=none;rounded=0;orthogonalLoop=1;jettySize=auto;html=1;exitX=0.75;exitY=0;exitDx=0;exitDy=0;entryX=0.75;entryY=1;entryDx=0;entryDy=0;" parent="WIyWlLk6GJQsqaUBKTNV-1" source="gpyAhbkI_0szL79RBJTk-30" target="gpyAhbkI_0szL79RBJTk-27" edge="1">
          <mxGeometry relative="1" as="geometry" />
        </mxCell>
        <mxCell id="gpyAhbkI_0szL79RBJTk-30" value="Golden DB" style="rounded=1;whiteSpace=wrap;html=1;" parent="WIyWlLk6GJQsqaUBKTNV-1" vertex="1">
          <mxGeometry x="385" y="850" width="120" height="60" as="geometry" />
        </mxCell>
        <mxCell id="gpyAhbkI_0szL79RBJTk-31" value="智数" style="rounded=1;whiteSpace=wrap;html=1;" parent="WIyWlLk6GJQsqaUBKTNV-1" vertex="1">
          <mxGeometry x="385" y="620" width="120" height="60" as="geometry" />
        </mxCell>
        <mxCell id="gpyAhbkI_0szL79RBJTk-37" value="&lt;font style=&quot;font-size: 18px;&quot;&gt;b 微服务1、2计算&lt;/font&gt;" style="text;strokeColor=none;align=center;fillColor=none;html=1;verticalAlign=middle;whiteSpace=wrap;rounded=0;" parent="WIyWlLk6GJQsqaUBKTNV-1" vertex="1">
          <mxGeometry x="365" y="910" width="160" height="70" as="geometry" />
        </mxCell>
        <mxCell id="gpyAhbkI_0szL79RBJTk-38" value="&lt;font style=&quot;font-size: 18px;&quot;&gt;a FEX卸数&lt;/font&gt;" style="text;strokeColor=none;align=center;fillColor=none;html=1;verticalAlign=middle;whiteSpace=wrap;rounded=0;" parent="WIyWlLk6GJQsqaUBKTNV-1" vertex="1">
          <mxGeometry x="300" y="790" width="105" height="30" as="geometry" />
        </mxCell>
        <mxCell id="gpyAhbkI_0szL79RBJTk-39" value="&lt;font style=&quot;font-size: 18px;&quot;&gt;c FEX卸数&lt;/font&gt;" style="text;strokeColor=none;align=center;fillColor=none;html=1;verticalAlign=middle;whiteSpace=wrap;rounded=0;" parent="WIyWlLk6GJQsqaUBKTNV-1" vertex="1">
          <mxGeometry x="499" y="790" width="101" height="30" as="geometry" />
        </mxCell>
        <mxCell id="gpyAhbkI_0szL79RBJTk-40" value="&lt;font style=&quot;font-size: 18px;&quot;&gt;d 展示到智数&lt;/font&gt;" style="text;strokeColor=none;align=center;fillColor=none;html=1;verticalAlign=middle;whiteSpace=wrap;rounded=0;" parent="WIyWlLk6GJQsqaUBKTNV-1" vertex="1">
          <mxGeometry x="460" y="685" width="120" height="30" as="geometry" />
        </mxCell>
        <mxCell id="gpyAhbkI_0szL79RBJTk-44" style="edgeStyle=none;rounded=0;orthogonalLoop=1;jettySize=auto;html=1;exitX=1;exitY=0.25;exitDx=0;exitDy=0;" parent="WIyWlLk6GJQsqaUBKTNV-1" source="gpyAhbkI_0szL79RBJTk-24" target="gpyAhbkI_0szL79RBJTk-24" edge="1">
          <mxGeometry relative="1" as="geometry" />
        </mxCell>
        <mxCell id="gpyAhbkI_0szL79RBJTk-48" value="" style="rounded=0;whiteSpace=wrap;html=1;" parent="WIyWlLk6GJQsqaUBKTNV-1" vertex="1">
          <mxGeometry x="-942.5" y="855" width="190" height="60" as="geometry" />
        </mxCell>
        <mxCell id="gpyAhbkI_0szL79RBJTk-50" style="edgeStyle=none;rounded=0;orthogonalLoop=1;jettySize=auto;html=1;exitX=0.75;exitY=1;exitDx=0;exitDy=0;entryX=0.75;entryY=0;entryDx=0;entryDy=0;" parent="WIyWlLk6GJQsqaUBKTNV-1" source="gpyAhbkI_0szL79RBJTk-52" target="gpyAhbkI_0szL79RBJTk-57" edge="1">
          <mxGeometry relative="1" as="geometry" />
        </mxCell>
        <mxCell id="gpyAhbkI_0szL79RBJTk-51" style="edgeStyle=orthogonalEdgeStyle;rounded=0;orthogonalLoop=1;jettySize=auto;html=1;exitX=1;exitY=0.5;exitDx=0;exitDy=0;entryX=1;entryY=0.5;entryDx=0;entryDy=0;" parent="WIyWlLk6GJQsqaUBKTNV-1" source="gpyAhbkI_0szL79RBJTk-52" target="gpyAhbkI_0szL79RBJTk-58" edge="1">
          <mxGeometry relative="1" as="geometry" />
        </mxCell>
        <mxCell id="gpyAhbkI_0szL79RBJTk-52" value="Golden DB" style="rounded=1;whiteSpace=wrap;html=1;" parent="WIyWlLk6GJQsqaUBKTNV-1" vertex="1">
          <mxGeometry x="-10" y="730" width="120" height="60" as="geometry" />
        </mxCell>
        <mxCell id="gpyAhbkI_0szL79RBJTk-80" style="edgeStyle=orthogonalEdgeStyle;rounded=0;orthogonalLoop=1;jettySize=auto;html=1;exitX=1;exitY=0.25;exitDx=0;exitDy=0;entryX=0;entryY=0.25;entryDx=0;entryDy=0;" parent="WIyWlLk6GJQsqaUBKTNV-1" source="gpyAhbkI_0szL79RBJTk-54" target="gpyAhbkI_0szL79RBJTk-74" edge="1">
          <mxGeometry relative="1" as="geometry" />
        </mxCell>
        <mxCell id="gpyAhbkI_0szL79RBJTk-54" value="湖仓" style="rounded=1;whiteSpace=wrap;html=1;" parent="WIyWlLk6GJQsqaUBKTNV-1" vertex="1">
          <mxGeometry x="-110" y="580" width="120" height="60" as="geometry" />
        </mxCell>
        <mxCell id="gpyAhbkI_0szL79RBJTk-55" style="edgeStyle=none;rounded=0;orthogonalLoop=1;jettySize=auto;html=1;entryX=0.25;entryY=1;entryDx=0;entryDy=0;exitX=0.25;exitY=0;exitDx=0;exitDy=0;" parent="WIyWlLk6GJQsqaUBKTNV-1" source="gpyAhbkI_0szL79RBJTk-57" target="gpyAhbkI_0szL79RBJTk-52" edge="1">
          <mxGeometry relative="1" as="geometry" />
        </mxCell>
        <mxCell id="gpyAhbkI_0szL79RBJTk-56" style="edgeStyle=orthogonalEdgeStyle;rounded=0;orthogonalLoop=1;jettySize=auto;html=1;exitX=0;exitY=0.5;exitDx=0;exitDy=0;entryX=0;entryY=0.5;entryDx=0;entryDy=0;" parent="WIyWlLk6GJQsqaUBKTNV-1" source="gpyAhbkI_0szL79RBJTk-57" target="gpyAhbkI_0szL79RBJTk-58" edge="1">
          <mxGeometry relative="1" as="geometry" />
        </mxCell>
        <mxCell id="gpyAhbkI_0szL79RBJTk-57" value="redis" style="rounded=1;whiteSpace=wrap;html=1;" parent="WIyWlLk6GJQsqaUBKTNV-1" vertex="1">
          <mxGeometry x="-10" y="840" width="120" height="60" as="geometry" />
        </mxCell>
        <mxCell id="gpyAhbkI_0szL79RBJTk-58" value="前端" style="rounded=1;whiteSpace=wrap;html=1;" parent="WIyWlLk6GJQsqaUBKTNV-1" vertex="1">
          <mxGeometry x="-10" y="1040" width="120" height="60" as="geometry" />
        </mxCell>
        <mxCell id="gpyAhbkI_0szL79RBJTk-59" value="&lt;font style=&quot;font-size: 18px;&quot;&gt;c 微服务3、4、6、7计算和展示到前端&lt;/font&gt;" style="text;strokeColor=none;align=center;fillColor=none;html=1;verticalAlign=middle;whiteSpace=wrap;rounded=0;" parent="WIyWlLk6GJQsqaUBKTNV-1" vertex="1">
          <mxGeometry x="-15" y="920" width="130" height="60" as="geometry" />
        </mxCell>
        <mxCell id="gpyAhbkI_0szL79RBJTk-60" value="&lt;font style=&quot;font-size: 18px;&quot;&gt;b FEX卸数&lt;/font&gt;" style="text;strokeColor=none;align=center;fillColor=none;html=1;verticalAlign=middle;whiteSpace=wrap;rounded=0;" parent="WIyWlLk6GJQsqaUBKTNV-1" vertex="1">
          <mxGeometry x="50" y="670" width="110" height="30" as="geometry" />
        </mxCell>
        <mxCell id="gpyAhbkI_0szL79RBJTk-61" value="&lt;font style=&quot;font-size: 18px;&quot;&gt;实时链路&lt;/font&gt;" style="text;strokeColor=none;align=center;fillColor=none;html=1;verticalAlign=middle;whiteSpace=wrap;rounded=0;" parent="WIyWlLk6GJQsqaUBKTNV-1" vertex="1">
          <mxGeometry x="-25" y="480" width="140" height="30" as="geometry" />
        </mxCell>
        <mxCell id="gpyAhbkI_0szL79RBJTk-63" style="edgeStyle=none;rounded=0;orthogonalLoop=1;jettySize=auto;html=1;exitX=0.231;exitY=0.923;exitDx=0;exitDy=0;exitPerimeter=0;entryX=0.259;entryY=0.076;entryDx=0;entryDy=0;entryPerimeter=0;" parent="WIyWlLk6GJQsqaUBKTNV-1" target="gpyAhbkI_0szL79RBJTk-69" edge="1" source="gpyAhbkI_0szL79RBJTk-87">
          <mxGeometry relative="1" as="geometry">
            <mxPoint x="-897" y="842.5" as="sourcePoint" />
            <mxPoint x="-897.5" y="905" as="targetPoint" />
          </mxGeometry>
        </mxCell>
        <mxCell id="gpyAhbkI_0szL79RBJTk-65" value="&lt;font style=&quot;font-size: 18px;&quot;&gt;定时链路&lt;/font&gt;" style="text;strokeColor=none;align=center;fillColor=none;html=1;verticalAlign=middle;whiteSpace=wrap;rounded=0;" parent="WIyWlLk6GJQsqaUBKTNV-1" vertex="1">
          <mxGeometry x="-934" y="412.5" width="140" height="30" as="geometry" />
        </mxCell>
        <mxCell id="gpyAhbkI_0szL79RBJTk-66" style="edgeStyle=none;rounded=0;orthogonalLoop=1;jettySize=auto;html=1;exitX=0.528;exitY=0.071;exitDx=0;exitDy=0;exitPerimeter=0;" parent="WIyWlLk6GJQsqaUBKTNV-1" source="gpyAhbkI_0szL79RBJTk-69" edge="1">
          <mxGeometry relative="1" as="geometry">
            <mxPoint x="-842.5" y="735" as="targetPoint" />
            <mxPoint x="-838.5" y="905" as="sourcePoint" />
          </mxGeometry>
        </mxCell>
        <mxCell id="gpyAhbkI_0szL79RBJTk-68" value="智数" style="rounded=1;whiteSpace=wrap;html=1;" parent="WIyWlLk6GJQsqaUBKTNV-1" vertex="1">
          <mxGeometry x="-924" y="462.5" width="120" height="60" as="geometry" />
        </mxCell>
        <mxCell id="gpyAhbkI_0szL79RBJTk-69" value="&lt;font style=&quot;font-size: 18px;&quot;&gt;E 微服务3、4、6、7计算&lt;/font&gt;" style="text;strokeColor=none;align=center;fillColor=none;html=1;verticalAlign=middle;whiteSpace=wrap;rounded=0;" parent="WIyWlLk6GJQsqaUBKTNV-1" vertex="1">
          <mxGeometry x="-943" y="850" width="190.5" height="70" as="geometry" />
        </mxCell>
        <mxCell id="gpyAhbkI_0szL79RBJTk-70" value="&lt;font style=&quot;font-size: 12px;&quot;&gt;D 基础数据/&lt;br&gt;视图数据/&lt;br&gt;中间数据&lt;/font&gt;" style="text;strokeColor=none;align=center;fillColor=none;html=1;verticalAlign=middle;whiteSpace=wrap;rounded=0;" parent="WIyWlLk6GJQsqaUBKTNV-1" vertex="1">
          <mxGeometry x="-962.5" y="810" width="67.5" height="40" as="geometry" />
        </mxCell>
        <mxCell id="gpyAhbkI_0szL79RBJTk-71" value="&lt;font style=&quot;font-size: 12px;&quot;&gt;F 最终数据&lt;/font&gt;" style="text;strokeColor=none;align=center;fillColor=none;html=1;verticalAlign=middle;whiteSpace=wrap;rounded=0;" parent="WIyWlLk6GJQsqaUBKTNV-1" vertex="1">
          <mxGeometry x="-835.5" y="810" width="63" height="20" as="geometry" />
        </mxCell>
        <mxCell id="gpyAhbkI_0szL79RBJTk-72" value="&lt;font style=&quot;font-size: 12px;&quot;&gt;H 最终数据展示&lt;/font&gt;" style="text;strokeColor=none;align=center;fillColor=none;html=1;verticalAlign=middle;whiteSpace=wrap;rounded=0;" parent="WIyWlLk6GJQsqaUBKTNV-1" vertex="1">
          <mxGeometry x="-862.5" y="527.5" width="90" height="17.5" as="geometry" />
        </mxCell>
        <mxCell id="gpyAhbkI_0szL79RBJTk-73" style="edgeStyle=none;rounded=0;orthogonalLoop=1;jettySize=auto;html=1;exitX=1;exitY=0.25;exitDx=0;exitDy=0;" parent="WIyWlLk6GJQsqaUBKTNV-1" source="gpyAhbkI_0szL79RBJTk-49" target="gpyAhbkI_0szL79RBJTk-49" edge="1">
          <mxGeometry relative="1" as="geometry" />
        </mxCell>
        <mxCell id="gpyAhbkI_0szL79RBJTk-81" style="edgeStyle=orthogonalEdgeStyle;rounded=0;orthogonalLoop=1;jettySize=auto;html=1;exitX=0;exitY=0.75;exitDx=0;exitDy=0;entryX=1;entryY=0.75;entryDx=0;entryDy=0;" parent="WIyWlLk6GJQsqaUBKTNV-1" source="gpyAhbkI_0szL79RBJTk-74" target="gpyAhbkI_0szL79RBJTk-54" edge="1">
          <mxGeometry relative="1" as="geometry" />
        </mxCell>
        <mxCell id="gpyAhbkI_0szL79RBJTk-74" value="湖仓" style="rounded=1;whiteSpace=wrap;html=1;" parent="WIyWlLk6GJQsqaUBKTNV-1" vertex="1">
          <mxGeometry x="90" y="580" width="120" height="60" as="geometry" />
        </mxCell>
        <mxCell id="gpyAhbkI_0szL79RBJTk-79" value="&lt;font style=&quot;font-size: 18px;&quot;&gt;a task和clear计算&amp;nbsp;&lt;/font&gt;" style="text;strokeColor=none;align=center;fillColor=none;html=1;verticalAlign=middle;whiteSpace=wrap;rounded=0;" parent="WIyWlLk6GJQsqaUBKTNV-1" vertex="1">
          <mxGeometry x="-37.5" y="540" width="165" height="30" as="geometry" />
        </mxCell>
        <mxCell id="EE5mFRboxM6X0PhIgB9W-28" style="edgeStyle=none;rounded=0;orthogonalLoop=1;jettySize=auto;html=1;exitX=0.281;exitY=1.003;exitDx=0;exitDy=0;entryX=0.25;entryY=0;entryDx=0;entryDy=0;exitPerimeter=0;" edge="1" parent="WIyWlLk6GJQsqaUBKTNV-1" source="gpyAhbkI_0szL79RBJTk-85">
          <mxGeometry relative="1" as="geometry">
            <mxPoint x="-890" y="627.5" as="sourcePoint" />
            <mxPoint x="-890" y="670" as="targetPoint" />
          </mxGeometry>
        </mxCell>
        <mxCell id="EE5mFRboxM6X0PhIgB9W-29" style="rounded=0;orthogonalLoop=1;jettySize=auto;html=1;exitX=0.774;exitY=1.017;exitDx=0;exitDy=0;entryX=0.5;entryY=0;entryDx=0;entryDy=0;exitPerimeter=0;" edge="1" parent="WIyWlLk6GJQsqaUBKTNV-1" source="gpyAhbkI_0szL79RBJTk-85">
          <mxGeometry relative="1" as="geometry">
            <mxPoint x="-831" y="627.5" as="sourcePoint" />
            <mxPoint x="-831" y="670" as="targetPoint" />
          </mxGeometry>
        </mxCell>
        <mxCell id="gpyAhbkI_0szL79RBJTk-85" value="湖仓" style="rounded=1;whiteSpace=wrap;html=1;" parent="WIyWlLk6GJQsqaUBKTNV-1" vertex="1">
          <mxGeometry x="-924" y="555" width="120" height="60" as="geometry" />
        </mxCell>
        <mxCell id="EE5mFRboxM6X0PhIgB9W-31" style="edgeStyle=orthogonalEdgeStyle;rounded=0;orthogonalLoop=1;jettySize=auto;html=1;entryX=1;entryY=0.5;entryDx=0;entryDy=0;exitX=1;exitY=0.25;exitDx=0;exitDy=0;" edge="1" parent="WIyWlLk6GJQsqaUBKTNV-1" source="gpyAhbkI_0szL79RBJTk-87" target="gpyAhbkI_0szL79RBJTk-85">
          <mxGeometry relative="1" as="geometry">
            <mxPoint x="-802.5" y="705" as="sourcePoint" />
            <Array as="points">
              <mxPoint x="-802.5" y="685" />
              <mxPoint x="-672.5" y="685" />
              <mxPoint x="-672.5" y="585" />
            </Array>
          </mxGeometry>
        </mxCell>
        <mxCell id="gpyAhbkI_0szL79RBJTk-87" value="Golden DB" style="rounded=1;whiteSpace=wrap;html=1;" parent="WIyWlLk6GJQsqaUBKTNV-1" vertex="1">
          <mxGeometry x="-923" y="670" width="120" height="65" as="geometry" />
        </mxCell>
        <mxCell id="gpyAhbkI_0szL79RBJTk-88" value="&lt;font style=&quot;font-size: 12px;&quot;&gt;C task和clear计算&lt;br&gt;中间数据&amp;nbsp;&lt;/font&gt;" style="text;strokeColor=none;align=center;fillColor=none;html=1;verticalAlign=middle;whiteSpace=wrap;rounded=0;" parent="WIyWlLk6GJQsqaUBKTNV-1" vertex="1">
          <mxGeometry x="-792.5" y="755" width="105" height="30" as="geometry" />
        </mxCell>
        <mxCell id="EE5mFRboxM6X0PhIgB9W-21" style="edgeStyle=none;rounded=0;orthogonalLoop=1;jettySize=auto;html=1;exitX=1;exitY=0.25;exitDx=0;exitDy=0;entryX=0;entryY=0.25;entryDx=0;entryDy=0;" edge="1" parent="WIyWlLk6GJQsqaUBKTNV-1" source="EE5mFRboxM6X0PhIgB9W-2" target="EE5mFRboxM6X0PhIgB9W-11">
          <mxGeometry relative="1" as="geometry" />
        </mxCell>
        <mxCell id="EE5mFRboxM6X0PhIgB9W-2" value="Golden DB" style="rounded=1;whiteSpace=wrap;html=1;" vertex="1" parent="WIyWlLk6GJQsqaUBKTNV-1">
          <mxGeometry x="1320" y="220" width="120" height="60" as="geometry" />
        </mxCell>
        <mxCell id="EE5mFRboxM6X0PhIgB9W-22" style="edgeStyle=none;rounded=0;orthogonalLoop=1;jettySize=auto;html=1;exitX=0;exitY=0.75;exitDx=0;exitDy=0;entryX=1;entryY=0.75;entryDx=0;entryDy=0;" edge="1" parent="WIyWlLk6GJQsqaUBKTNV-1" source="EE5mFRboxM6X0PhIgB9W-11" target="EE5mFRboxM6X0PhIgB9W-2">
          <mxGeometry relative="1" as="geometry" />
        </mxCell>
        <mxCell id="EE5mFRboxM6X0PhIgB9W-11" value="数据湖" style="rounded=1;whiteSpace=wrap;html=1;" vertex="1" parent="WIyWlLk6GJQsqaUBKTNV-1">
          <mxGeometry x="1480" y="220" width="120" height="60" as="geometry" />
        </mxCell>
        <mxCell id="EE5mFRboxM6X0PhIgB9W-12" value="智数" style="rounded=1;whiteSpace=wrap;html=1;" vertex="1" parent="WIyWlLk6GJQsqaUBKTNV-1">
          <mxGeometry x="2100" y="210" width="120" height="60" as="geometry" />
        </mxCell>
        <mxCell id="EE5mFRboxM6X0PhIgB9W-13" value="redis" style="rounded=1;whiteSpace=wrap;html=1;" vertex="1" parent="WIyWlLk6GJQsqaUBKTNV-1">
          <mxGeometry x="1150" y="220" width="120" height="60" as="geometry" />
        </mxCell>
        <mxCell id="EE5mFRboxM6X0PhIgB9W-25" style="edgeStyle=none;rounded=0;orthogonalLoop=1;jettySize=auto;html=1;exitX=0;exitY=0.75;exitDx=0;exitDy=0;" edge="1" parent="WIyWlLk6GJQsqaUBKTNV-1" source="EE5mFRboxM6X0PhIgB9W-14" target="EE5mFRboxM6X0PhIgB9W-15">
          <mxGeometry relative="1" as="geometry" />
        </mxCell>
        <mxCell id="EE5mFRboxM6X0PhIgB9W-14" value="前端" style="rounded=1;whiteSpace=wrap;html=1;" vertex="1" parent="WIyWlLk6GJQsqaUBKTNV-1">
          <mxGeometry x="2140" y="465" width="120" height="60" as="geometry" />
        </mxCell>
        <mxCell id="EE5mFRboxM6X0PhIgB9W-16" style="edgeStyle=none;rounded=0;orthogonalLoop=1;jettySize=auto;html=1;exitX=0.5;exitY=1;exitDx=0;exitDy=0;entryX=0.17;entryY=0.008;entryDx=0;entryDy=0;entryPerimeter=0;" edge="1" parent="WIyWlLk6GJQsqaUBKTNV-1">
          <mxGeometry relative="1" as="geometry">
            <mxPoint x="1180" y="280" as="sourcePoint" />
            <mxPoint x="1180" y="440.96000000000004" as="targetPoint" />
          </mxGeometry>
        </mxCell>
        <mxCell id="EE5mFRboxM6X0PhIgB9W-18" style="edgeStyle=none;rounded=0;orthogonalLoop=1;jettySize=auto;html=1;exitX=0.199;exitY=0;exitDx=0;exitDy=0;entryX=0.75;entryY=1;entryDx=0;entryDy=0;exitPerimeter=0;" edge="1" parent="WIyWlLk6GJQsqaUBKTNV-1" source="EE5mFRboxM6X0PhIgB9W-15" target="EE5mFRboxM6X0PhIgB9W-13">
          <mxGeometry relative="1" as="geometry">
            <mxPoint x="1225" y="440" as="sourcePoint" />
            <mxPoint x="1241" y="275.98" as="targetPoint" />
          </mxGeometry>
        </mxCell>
        <mxCell id="EE5mFRboxM6X0PhIgB9W-19" style="edgeStyle=none;rounded=0;orthogonalLoop=1;jettySize=auto;html=1;exitX=0.25;exitY=1;exitDx=0;exitDy=0;entryX=0.31;entryY=0.008;entryDx=0;entryDy=0;entryPerimeter=0;" edge="1" parent="WIyWlLk6GJQsqaUBKTNV-1" source="EE5mFRboxM6X0PhIgB9W-2" target="EE5mFRboxM6X0PhIgB9W-15">
          <mxGeometry relative="1" as="geometry" />
        </mxCell>
        <mxCell id="EE5mFRboxM6X0PhIgB9W-20" style="edgeStyle=none;rounded=0;orthogonalLoop=1;jettySize=auto;html=1;entryX=0.7;entryY=0.983;entryDx=0;entryDy=0;entryPerimeter=0;" edge="1" parent="WIyWlLk6GJQsqaUBKTNV-1" target="EE5mFRboxM6X0PhIgB9W-2">
          <mxGeometry relative="1" as="geometry">
            <mxPoint x="1404" y="440" as="sourcePoint" />
          </mxGeometry>
        </mxCell>
        <mxCell id="EE5mFRboxM6X0PhIgB9W-23" style="edgeStyle=none;rounded=0;orthogonalLoop=1;jettySize=auto;html=1;exitX=1;exitY=0.25;exitDx=0;exitDy=0;entryX=0;entryY=0.4;entryDx=0;entryDy=0;entryPerimeter=0;" edge="1" parent="WIyWlLk6GJQsqaUBKTNV-1" source="EE5mFRboxM6X0PhIgB9W-11" target="EE5mFRboxM6X0PhIgB9W-12">
          <mxGeometry relative="1" as="geometry" />
        </mxCell>
        <mxCell id="EE5mFRboxM6X0PhIgB9W-24" style="edgeStyle=none;rounded=0;orthogonalLoop=1;jettySize=auto;html=1;exitX=1;exitY=0.332;exitDx=0;exitDy=0;exitPerimeter=0;entryX=0;entryY=0.25;entryDx=0;entryDy=0;" edge="1" parent="WIyWlLk6GJQsqaUBKTNV-1" source="EE5mFRboxM6X0PhIgB9W-15" target="EE5mFRboxM6X0PhIgB9W-14">
          <mxGeometry relative="1" as="geometry">
            <mxPoint x="2130" y="490" as="targetPoint" />
          </mxGeometry>
        </mxCell>
        <mxCell id="EE5mFRboxM6X0PhIgB9W-32" value="&lt;font style=&quot;font-size: 12px;&quot;&gt;A FEX卸载基础数据&lt;/font&gt;" style="text;strokeColor=none;align=center;fillColor=none;html=1;verticalAlign=middle;whiteSpace=wrap;rounded=0;" vertex="1" parent="WIyWlLk6GJQsqaUBKTNV-1">
          <mxGeometry x="-1000" y="625" width="110" height="25" as="geometry" />
        </mxCell>
        <mxCell id="EE5mFRboxM6X0PhIgB9W-33" value="&lt;font style=&quot;font-size: 12px;&quot;&gt;B FEX卸载视图数据&lt;/font&gt;" style="text;strokeColor=none;align=center;fillColor=none;html=1;verticalAlign=middle;whiteSpace=wrap;rounded=0;" vertex="1" parent="WIyWlLk6GJQsqaUBKTNV-1">
          <mxGeometry x="-822.5" y="625" width="113" height="25" as="geometry" />
        </mxCell>
        <mxCell id="EE5mFRboxM6X0PhIgB9W-34" value="&lt;font style=&quot;font-size: 12px;&quot;&gt;G FEX卸载最终数据&lt;/font&gt;" style="text;strokeColor=none;align=center;fillColor=none;html=1;verticalAlign=middle;whiteSpace=wrap;rounded=0;" vertex="1" parent="WIyWlLk6GJQsqaUBKTNV-1">
          <mxGeometry x="-794" y="560" width="111.5" height="25" as="geometry" />
        </mxCell>
        <mxCell id="EE5mFRboxM6X0PhIgB9W-38" style="edgeStyle=orthogonalEdgeStyle;rounded=0;orthogonalLoop=1;jettySize=auto;html=1;entryX=1;entryY=0.75;entryDx=0;entryDy=0;" edge="1" parent="WIyWlLk6GJQsqaUBKTNV-1" source="gpyAhbkI_0szL79RBJTk-87" target="gpyAhbkI_0szL79RBJTk-87">
          <mxGeometry relative="1" as="geometry">
            <mxPoint x="-822.5" y="735" as="sourcePoint" />
            <Array as="points">
              <mxPoint x="-822.5" y="755" />
              <mxPoint x="-672.5" y="755" />
              <mxPoint x="-672.5" y="719" />
            </Array>
          </mxGeometry>
        </mxCell>
        <mxCell id="EE5mFRboxM6X0PhIgB9W-83" value="" style="rounded=0;whiteSpace=wrap;html=1;" vertex="1" parent="WIyWlLk6GJQsqaUBKTNV-1">
          <mxGeometry x="-550" y="657.5" width="297.5" height="137.5" as="geometry" />
        </mxCell>
        <mxCell id="EE5mFRboxM6X0PhIgB9W-84" value="" style="rounded=0;whiteSpace=wrap;html=1;" vertex="1" parent="WIyWlLk6GJQsqaUBKTNV-1">
          <mxGeometry x="-542.5" y="855" width="190" height="60" as="geometry" />
        </mxCell>
        <mxCell id="EE5mFRboxM6X0PhIgB9W-85" style="edgeStyle=none;rounded=0;orthogonalLoop=1;jettySize=auto;html=1;exitX=0.231;exitY=0.923;exitDx=0;exitDy=0;exitPerimeter=0;entryX=0.25;entryY=0;entryDx=0;entryDy=0;" edge="1" source="EE5mFRboxM6X0PhIgB9W-97" target="EE5mFRboxM6X0PhIgB9W-84" parent="WIyWlLk6GJQsqaUBKTNV-1">
          <mxGeometry relative="1" as="geometry">
            <mxPoint x="-497" y="842.5" as="sourcePoint" />
            <mxPoint x="-497.5" y="905" as="targetPoint" />
          </mxGeometry>
        </mxCell>
        <mxCell id="EE5mFRboxM6X0PhIgB9W-86" value="&lt;font style=&quot;font-size: 18px;&quot;&gt;实时链路&lt;/font&gt;" style="text;strokeColor=none;align=center;fillColor=none;html=1;verticalAlign=middle;whiteSpace=wrap;rounded=0;" vertex="1" parent="WIyWlLk6GJQsqaUBKTNV-1">
          <mxGeometry x="-534" y="412.5" width="140" height="30" as="geometry" />
        </mxCell>
        <mxCell id="EE5mFRboxM6X0PhIgB9W-87" style="edgeStyle=none;rounded=0;orthogonalLoop=1;jettySize=auto;html=1;exitX=0.533;exitY=0.006;exitDx=0;exitDy=0;exitPerimeter=0;" edge="1" source="EE5mFRboxM6X0PhIgB9W-84" parent="WIyWlLk6GJQsqaUBKTNV-1">
          <mxGeometry relative="1" as="geometry">
            <mxPoint x="-442.5" y="735" as="targetPoint" />
            <mxPoint x="-438.5" y="905" as="sourcePoint" />
          </mxGeometry>
        </mxCell>
        <mxCell id="EE5mFRboxM6X0PhIgB9W-104" value="" style="edgeStyle=orthogonalEdgeStyle;rounded=0;orthogonalLoop=1;jettySize=auto;html=1;exitX=1.011;exitY=0.242;exitDx=0;exitDy=0;exitPerimeter=0;" edge="1" parent="WIyWlLk6GJQsqaUBKTNV-1" source="EE5mFRboxM6X0PhIgB9W-84" target="EE5mFRboxM6X0PhIgB9W-103">
          <mxGeometry relative="1" as="geometry">
            <Array as="points">
              <mxPoint x="-320" y="870" />
              <mxPoint x="-320" y="870" />
            </Array>
          </mxGeometry>
        </mxCell>
        <mxCell id="EE5mFRboxM6X0PhIgB9W-89" value="&lt;font style=&quot;font-size: 12px;&quot;&gt;微服务3、4、6、7计算&lt;/font&gt;" style="text;strokeColor=none;align=center;fillColor=none;html=1;verticalAlign=middle;whiteSpace=wrap;rounded=0;" vertex="1" parent="WIyWlLk6GJQsqaUBKTNV-1">
          <mxGeometry x="-530" y="870" width="160" height="30" as="geometry" />
        </mxCell>
        <mxCell id="EE5mFRboxM6X0PhIgB9W-90" value="&lt;font style=&quot;font-size: 12px;&quot;&gt;B 基础数据/&lt;br&gt;视图数据/&lt;br&gt;中间数据&lt;/font&gt;" style="text;strokeColor=none;align=center;fillColor=none;html=1;verticalAlign=middle;whiteSpace=wrap;rounded=0;" vertex="1" parent="WIyWlLk6GJQsqaUBKTNV-1">
          <mxGeometry x="-562.5" y="800" width="67.5" height="40" as="geometry" />
        </mxCell>
        <mxCell id="EE5mFRboxM6X0PhIgB9W-91" value="&lt;font style=&quot;font-size: 12px;&quot;&gt;C 最终数据&lt;/font&gt;" style="text;strokeColor=none;align=center;fillColor=none;html=1;verticalAlign=middle;whiteSpace=wrap;rounded=0;" vertex="1" parent="WIyWlLk6GJQsqaUBKTNV-1">
          <mxGeometry x="-435.5" y="810" width="63" height="20" as="geometry" />
        </mxCell>
        <mxCell id="EE5mFRboxM6X0PhIgB9W-93" style="edgeStyle=none;rounded=0;orthogonalLoop=1;jettySize=auto;html=1;exitX=0.281;exitY=1.003;exitDx=0;exitDy=0;entryX=0.25;entryY=0;entryDx=0;entryDy=0;exitPerimeter=0;" edge="1" source="EE5mFRboxM6X0PhIgB9W-95" parent="WIyWlLk6GJQsqaUBKTNV-1">
          <mxGeometry relative="1" as="geometry">
            <mxPoint x="-490" y="627.5" as="sourcePoint" />
            <mxPoint x="-490" y="670" as="targetPoint" />
          </mxGeometry>
        </mxCell>
        <mxCell id="EE5mFRboxM6X0PhIgB9W-94" style="rounded=0;orthogonalLoop=1;jettySize=auto;html=1;exitX=0.774;exitY=1.017;exitDx=0;exitDy=0;entryX=0.5;entryY=0;entryDx=0;entryDy=0;exitPerimeter=0;" edge="1" source="EE5mFRboxM6X0PhIgB9W-95" parent="WIyWlLk6GJQsqaUBKTNV-1">
          <mxGeometry relative="1" as="geometry">
            <mxPoint x="-431" y="627.5" as="sourcePoint" />
            <mxPoint x="-431" y="670" as="targetPoint" />
          </mxGeometry>
        </mxCell>
        <mxCell id="EE5mFRboxM6X0PhIgB9W-95" value="湖仓" style="rounded=1;whiteSpace=wrap;html=1;" vertex="1" parent="WIyWlLk6GJQsqaUBKTNV-1">
          <mxGeometry x="-524" y="555" width="120" height="60" as="geometry" />
        </mxCell>
        <mxCell id="EE5mFRboxM6X0PhIgB9W-97" value="Golden DB" style="rounded=1;whiteSpace=wrap;html=1;" vertex="1" parent="WIyWlLk6GJQsqaUBKTNV-1">
          <mxGeometry x="-523" y="670" width="120" height="65" as="geometry" />
        </mxCell>
        <mxCell id="EE5mFRboxM6X0PhIgB9W-98" value="&lt;font style=&quot;font-size: 12px;&quot;&gt;C task和clear计算&lt;br&gt;中间数据&amp;nbsp;&lt;/font&gt;" style="text;strokeColor=none;align=center;fillColor=none;html=1;verticalAlign=middle;whiteSpace=wrap;rounded=0;" vertex="1" parent="WIyWlLk6GJQsqaUBKTNV-1">
          <mxGeometry x="-392.5" y="755" width="105" height="30" as="geometry" />
        </mxCell>
        <mxCell id="EE5mFRboxM6X0PhIgB9W-99" value="&lt;font style=&quot;font-size: 12px;&quot;&gt;FEX卸载基础数据&lt;/font&gt;" style="text;strokeColor=none;align=center;fillColor=none;html=1;verticalAlign=middle;whiteSpace=wrap;rounded=0;" vertex="1" parent="WIyWlLk6GJQsqaUBKTNV-1">
          <mxGeometry x="-600" y="625" width="110" height="25" as="geometry" />
        </mxCell>
        <mxCell id="EE5mFRboxM6X0PhIgB9W-100" value="&lt;font style=&quot;font-size: 12px;&quot;&gt;FEX卸载视图数据&lt;/font&gt;" style="text;strokeColor=none;align=center;fillColor=none;html=1;verticalAlign=middle;whiteSpace=wrap;rounded=0;" vertex="1" parent="WIyWlLk6GJQsqaUBKTNV-1">
          <mxGeometry x="-422.5" y="625" width="113" height="25" as="geometry" />
        </mxCell>
        <mxCell id="EE5mFRboxM6X0PhIgB9W-102" style="edgeStyle=orthogonalEdgeStyle;rounded=0;orthogonalLoop=1;jettySize=auto;html=1;entryX=1;entryY=0.75;entryDx=0;entryDy=0;" edge="1" source="EE5mFRboxM6X0PhIgB9W-97" target="EE5mFRboxM6X0PhIgB9W-97" parent="WIyWlLk6GJQsqaUBKTNV-1">
          <mxGeometry relative="1" as="geometry">
            <mxPoint x="-422.5" y="735" as="sourcePoint" />
            <Array as="points">
              <mxPoint x="-422.5" y="755" />
              <mxPoint x="-272.5" y="755" />
              <mxPoint x="-272.5" y="719" />
            </Array>
          </mxGeometry>
        </mxCell>
        <mxCell id="EE5mFRboxM6X0PhIgB9W-105" style="edgeStyle=none;rounded=0;orthogonalLoop=1;jettySize=auto;html=1;exitX=0;exitY=0.714;exitDx=0;exitDy=0;entryX=1.003;entryY=0.723;entryDx=0;entryDy=0;entryPerimeter=0;exitPerimeter=0;" edge="1" parent="WIyWlLk6GJQsqaUBKTNV-1" source="EE5mFRboxM6X0PhIgB9W-103" target="EE5mFRboxM6X0PhIgB9W-84">
          <mxGeometry relative="1" as="geometry" />
        </mxCell>
        <mxCell id="EE5mFRboxM6X0PhIgB9W-103" value="redis" style="rounded=1;whiteSpace=wrap;html=1;" vertex="1" parent="WIyWlLk6GJQsqaUBKTNV-1">
          <mxGeometry x="-240" y="855" width="120" height="60" as="geometry" />
        </mxCell>
        <mxCell id="EE5mFRboxM6X0PhIgB9W-106" value="前端" style="rounded=1;whiteSpace=wrap;html=1;" vertex="1" parent="WIyWlLk6GJQsqaUBKTNV-1">
          <mxGeometry x="-514" y="970" width="120" height="40" as="geometry" />
        </mxCell>
        <mxCell id="EE5mFRboxM6X0PhIgB9W-107" style="edgeStyle=none;rounded=0;orthogonalLoop=1;jettySize=auto;html=1;exitX=0.278;exitY=0.001;exitDx=0;exitDy=0;exitPerimeter=0;entryX=0.327;entryY=0.996;entryDx=0;entryDy=0;entryPerimeter=0;" edge="1" parent="WIyWlLk6GJQsqaUBKTNV-1" source="EE5mFRboxM6X0PhIgB9W-106" target="EE5mFRboxM6X0PhIgB9W-84">
          <mxGeometry relative="1" as="geometry">
            <mxPoint x="-480" y="920" as="targetPoint" />
          </mxGeometry>
        </mxCell>
        <mxCell id="EE5mFRboxM6X0PhIgB9W-108" style="edgeStyle=none;rounded=0;orthogonalLoop=1;jettySize=auto;html=1;exitX=0.553;exitY=0.951;exitDx=0;exitDy=0;exitPerimeter=0;entryX=0.643;entryY=0.017;entryDx=0;entryDy=0;entryPerimeter=0;" edge="1" parent="WIyWlLk6GJQsqaUBKTNV-1" source="EE5mFRboxM6X0PhIgB9W-84" target="EE5mFRboxM6X0PhIgB9W-106">
          <mxGeometry relative="1" as="geometry">
            <mxPoint x="-424" y="950" as="targetPoint" />
          </mxGeometry>
        </mxCell>
        <mxCell id="EE5mFRboxM6X0PhIgB9W-109" value="&lt;font style=&quot;font-size: 12px;&quot;&gt;缓存数据&lt;/font&gt;" style="text;strokeColor=none;align=center;fillColor=none;html=1;verticalAlign=middle;whiteSpace=wrap;rounded=0;" vertex="1" parent="WIyWlLk6GJQsqaUBKTNV-1">
          <mxGeometry x="-329" y="850" width="63" height="20" as="geometry" />
        </mxCell>
        <mxCell id="EE5mFRboxM6X0PhIgB9W-110" value="读取缓存数据" style="text;strokeColor=none;align=center;fillColor=none;html=1;verticalAlign=middle;whiteSpace=wrap;rounded=0;" vertex="1" parent="WIyWlLk6GJQsqaUBKTNV-1">
          <mxGeometry x="-342.5" y="910" width="90" height="20" as="geometry" />
        </mxCell>
        <mxCell id="EE5mFRboxM6X0PhIgB9W-111" value="&lt;font style=&quot;font-size: 12px;&quot;&gt;A 实时请求&lt;/font&gt;" style="text;strokeColor=none;align=center;fillColor=none;html=1;verticalAlign=middle;whiteSpace=wrap;rounded=0;" vertex="1" parent="WIyWlLk6GJQsqaUBKTNV-1">
          <mxGeometry x="-600" y="932.5" width="110" height="25" as="geometry" />
        </mxCell>
        <mxCell id="EE5mFRboxM6X0PhIgB9W-112" style="edgeStyle=none;rounded=0;orthogonalLoop=1;jettySize=auto;html=1;exitX=1;exitY=0.5;exitDx=0;exitDy=0;" edge="1" parent="WIyWlLk6GJQsqaUBKTNV-1" source="EE5mFRboxM6X0PhIgB9W-84" target="EE5mFRboxM6X0PhIgB9W-84">
          <mxGeometry relative="1" as="geometry" />
        </mxCell>
        <mxCell id="EE5mFRboxM6X0PhIgB9W-113" value="&lt;font style=&quot;font-size: 12px;&quot;&gt;D 响应数据&lt;/font&gt;" style="text;strokeColor=none;align=center;fillColor=none;html=1;verticalAlign=middle;whiteSpace=wrap;rounded=0;" vertex="1" parent="WIyWlLk6GJQsqaUBKTNV-1">
          <mxGeometry x="-452.5" y="930" width="110" height="25" as="geometry" />
        </mxCell>
      </root>
    </mxGraphModel>
  </diagram>
</mxfile>
